<svg id="e5454b30-1bb2-48e6-af71-c7636d9a41c4" data-name="Object" xmlns="http://www.w3.org/2000/svg" viewBox="0 0 82.08 77.65"><path d="M68.47,43.11a13.65,13.65,0,0,0-2.57.24,20.08,20.08,0,0,0-35.57-4.22,15.63,15.63,0,0,0-13,9.77h-.21a10.72,10.72,0,0,0,0,21.43H68.47a13.61,13.61,0,0,0,0-27.22Z" style="fill:#fff"/><path d="M23.33,16.7c.6,0,1.08-5.93,1.08-6.75s-.48-2.27-1.08-2.27S22.25,9.12,22.25,10,22.73,16.7,23.33,16.7Z" style="fill:#fff"/><path d="M39,16.88c.58-.59,1.26-1.95.84-2.37s-1.78.26-2.37.84-4.43,5.12-4,5.54S38.4,17.46,39,16.88Z" style="fill:#fff"/><path d="M18.36,42.12a17.91,17.91,0,0,1,2.23-2,17.27,17.27,0,0,1,8-3.36,21.7,21.7,0,0,1,6.92-6.21,12.17,12.17,0,1,0-17.13,11.6Z" style="fill:#fff"/><path d="M7.67,45.14c-.58.59-1.26,2-.84,2.37s1.78-.26,2.37-.84,4.43-5.12,4-5.54S8.26,44.56,7.67,45.14Z" style="fill:#fff"/><path d="M13.21,20.89c.42-.42-3.43-5-4-5.54s-1.95-1.26-2.37-.84.26,1.78.84,2.37S12.79,21.31,13.21,20.89Z" style="fill:#fff"/><path d="M9,31c0-.59-5.93-1.08-6.76-1.08S0,30.42,0,31s1.44,1.08,2.26,1.08S9,31.61,9,31Z" style="fill:#fff"/></svg>