<svg id="a613d0fe-2884-4a6a-a85f-81339cf47df1" data-name="Object" xmlns="http://www.w3.org/2000/svg" viewBox="0 0 82.08 77.65"><circle cx="41.59" cy="38.83" r="20.25" style="fill:#fff"/><path d="M43.39,3.77c0,1.37-.81,11.23-1.8,11.23S39.8,5.14,39.8,3.77,40.6,0,41.59,0,43.39,2.4,43.39,3.77Z" style="fill:#fff"/><path d="M39.8,73.88c0-1.37.8-11.23,1.79-11.23s1.8,9.86,1.8,11.23-.81,3.77-1.8,3.77S39.8,75.26,39.8,73.88Z" style="fill:#fff"/><path d="M76.65,40.62c-1.37,0-11.23-.8-11.23-1.79S75.28,37,76.65,37s3.77.81,3.77,1.8S78,40.62,76.65,40.62Z" style="fill:#fff"/><path d="M6.54,37c1.37,0,11.23.81,11.23,1.8S7.91,40.62,6.54,40.62s-3.77-.8-3.77-1.79S5.16,37,6.54,37Z" style="fill:#fff"/><path d="M67.65,15.31c-1,1-8.51,7.37-9.21,6.67s5.7-8.24,6.68-9.21,3.23-2.1,3.93-1.4S68.62,14.33,67.65,15.31Z" style="fill:#fff"/><path d="M15.54,62.35c1-1,8.51-7.38,9.21-6.68S19,63.91,18.07,64.88s-3.23,2.1-3.93,1.4S14.56,63.32,15.54,62.35Z" style="fill:#fff"/><path d="M65.12,64.88c-1-1-7.38-8.51-6.68-9.21s8.24,5.71,9.21,6.68,2.1,3.23,1.4,3.93S66.09,65.86,65.12,64.88Z" style="fill:#fff"/><path d="M18.07,12.77c1,1,7.38,8.51,6.68,9.21s-8.24-5.7-9.21-6.67-2.1-3.24-1.4-3.94S17.1,11.8,18.07,12.77Z" style="fill:#fff"/></svg>