<svg id="aea8e619-5c5e-4730-8730-81425452f02c" data-name="Object" xmlns="http://www.w3.org/2000/svg" viewBox="0 0 82.08 77.65"><path d="M61.49,16.26a11,11,0,0,0-2.08.2A16.25,16.25,0,0,0,30.62,13,12.67,12.67,0,0,0,20.12,21H20a8.68,8.68,0,0,0,0,17.35H61.49a11,11,0,0,0,0-22Z" style="fill:#fff"/><path d="M49.09,65.77c.32-.81,2.07-3.85,2.65-3.62s-.22,3.64-.54,4.45S50.11,68,49.53,67.74,48.77,66.57,49.09,65.77Z" style="fill:#fff"/><path d="M53.33,55.05c.31-.81,2.06-3.84,2.64-3.61s-.22,3.64-.54,4.44S54.35,57.25,53.76,57,53,55.86,53.33,55.05Z" style="fill:#fff"/><path d="M57.56,44.34c.32-.81,2.06-3.85,2.64-3.62s-.22,3.64-.54,4.45S58.58,46.54,58,46.31,57.24,45.14,57.56,44.34Z" style="fill:#fff"/><path d="M41.24,69.83c.32-.8,2.06-3.84,2.65-3.61s-.22,3.64-.54,4.45S42.26,72,41.68,71.81,40.92,70.64,41.24,69.83Z" style="fill:#fff"/><path d="M45.47,59.12c.32-.81,2.07-3.84,2.65-3.62s-.22,3.64-.54,4.45-1.09,1.37-1.67,1.14S45.15,59.93,45.47,59.12Z" style="fill:#fff"/><path d="M49.71,48.41c.31-.81,2.06-3.85,2.64-3.62s-.22,3.64-.54,4.45-1.09,1.37-1.67,1.14S49.39,49.21,49.71,48.41Z" style="fill:#fff"/><path d="M36,65.77c.32-.81,2.06-3.85,2.65-3.62s-.23,3.64-.54,4.45S37,68,36.45,67.74,35.69,66.57,36,65.77Z" style="fill:#fff"/><path d="M40.24,55.05c.32-.81,2.07-3.84,2.65-3.61s-.22,3.64-.54,4.44S41.26,57.25,40.68,57,39.92,55.86,40.24,55.05Z" style="fill:#fff"/><path d="M44.47,44.34c.32-.81,2.07-3.85,2.65-3.62s-.22,3.64-.54,4.45-1.09,1.37-1.67,1.14S44.16,45.14,44.47,44.34Z" style="fill:#fff"/><path d="M28.16,69.83c.32-.8,2.06-3.84,2.64-3.61s-.22,3.64-.54,4.45S29.18,72,28.6,71.81,27.84,70.64,28.16,69.83Z" style="fill:#fff"/><path d="M32.39,59.12c.32-.81,2.06-3.84,2.65-3.62s-.23,3.64-.54,4.45-1.09,1.37-1.67,1.14S32.07,59.93,32.39,59.12Z" style="fill:#fff"/><path d="M36.62,48.41c.32-.81,2.07-3.85,2.65-3.62s-.22,3.64-.54,4.45-1.09,1.37-1.67,1.14S36.3,49.21,36.62,48.41Z" style="fill:#fff"/><path d="M22.93,65.77c.32-.81,2.06-3.85,2.64-3.62s-.22,3.64-.54,4.45S24,68,23.37,67.74,22.61,66.57,22.93,65.77Z" style="fill:#fff"/><path d="M27.16,55.05c.32-.81,2.06-3.84,2.64-3.61s-.22,3.64-.53,4.44S28.18,57.25,27.6,57,26.84,55.86,27.16,55.05Z" style="fill:#fff"/><path d="M31.39,44.34c.32-.81,2.07-3.85,2.65-3.62s-.22,3.64-.54,4.45-1.09,1.37-1.67,1.14S31.07,45.14,31.39,44.34Z" style="fill:#fff"/><path d="M15.07,69.83c.32-.8,2.07-3.84,2.65-3.61s-.22,3.64-.54,4.45S16.09,72,15.51,71.81,14.76,70.64,15.07,69.83Z" style="fill:#fff"/><path d="M19.31,59.12c.32-.81,2.06-3.84,2.64-3.62s-.22,3.64-.54,4.45-1.08,1.37-1.66,1.14S19,59.93,19.31,59.12Z" style="fill:#fff"/><path d="M23.54,48.41c.32-.81,2.06-3.85,2.64-3.62s-.22,3.64-.54,4.45S24.56,50.61,24,50.38,23.22,49.21,23.54,48.41Z" style="fill:#fff"/></svg>