<svg id="f91d6b4f-ebbe-4f8d-ba11-ad0c6fa4b4eb" data-name="Object" xmlns="http://www.w3.org/2000/svg" viewBox="0 0 82.08 77.65"><path d="M66.74,50.85c-.84-.49-3.07-1.72-5.92-3.25a58.85,58.85,0,0,0,6.53-1c1-.27,2.65-1.34,2.46-2.09s-2.14-.88-3.17-.61a50.26,50.26,0,0,0-7.34,2.9c-2.41-1.28-5.13-2.71-7.77-4a29.82,29.82,0,0,0,4.68-.51c.71-.19,1.8-1.12,1.61-1.87s-1.61-1-2.32-.84-4.43,1.65-5.31,2.53c-2.46-1.24-4.78-2.38-6.63-3.22,1.85-.85,4.17-2,6.63-3.23.88.88,4.69,2.36,5.31,2.53s2.12-.09,2.32-.84-.9-1.68-1.61-1.87a29.82,29.82,0,0,0-4.68-.51c2.64-1.34,5.36-2.77,7.77-4a50.26,50.26,0,0,0,7.34,2.9c1,.27,3,.14,3.17-.61s-1.43-1.82-2.46-2.09a58.85,58.85,0,0,0-6.53-1c2.85-1.53,5.08-2.76,5.92-3.25,3.21-1.87,3.7-3.27,3.1-4.29s-2-1.28-5.26.59c-.84.49-3,1.83-5.73,3.56a60.3,60.3,0,0,0,2.32-6.19c.27-1,.14-3-.61-3.16s-1.82,1.43-2.09,2.45a50.23,50.23,0,0,0-1.08,7.82c-2.3,1.48-4.88,3.14-7.35,4.78A29.41,29.41,0,0,0,51.9,28c.18-.71-.09-2.12-.84-2.31s-1.68.89-1.87,1.6-.74,4.67-.41,5.87c-2.28,1.52-4.4,3-6,4.17.2-2,.38-4.59.55-7.32,1.2-.32,4.41-2.86,4.86-3.32s1-1.87.45-2.42-1.9-.08-2.43.45a29.08,29.08,0,0,0-2.8,3.78c.17-3,.31-6,.42-8.76A50,50,0,0,0,50,14.9c.75-.75,1.61-2.5,1.07-3s-2.3.32-3,1.07a61.75,61.75,0,0,0-4.17,5.12c.12-3.23.19-5.77.19-6.75,0-3.71-1-4.83-2.14-4.83s-2.15,1.12-2.15,4.83c0,1,.07,3.52.19,6.75a61.75,61.75,0,0,0-4.17-5.12c-.75-.75-2.5-1.62-3.05-1.07s.32,2.29,1.07,3A50,50,0,0,0,40,19.77c.11,2.74.25,5.8.42,8.76a29.08,29.08,0,0,0-2.8-3.78c-.53-.53-1.88-1-2.43-.45s-.07,1.9.45,2.42,3.66,3,4.86,3.32c.17,2.73.35,5.3.55,7.32-1.64-1.19-3.76-2.65-6-4.17.33-1.2-.25-5.25-.41-5.87s-1.12-1.8-1.87-1.6-1,1.6-.84,2.31a29.41,29.41,0,0,0,1.86,4.33c-2.47-1.64-5.05-3.3-7.35-4.78a50.23,50.23,0,0,0-1.08-7.82c-.27-1-1.34-2.65-2.09-2.45s-.88,2.14-.61,3.16A58.6,58.6,0,0,0,25,26.66c-2.73-1.73-4.9-3.07-5.74-3.56C16,21.23,14.55,21.49,14,22.51s-.11,2.42,3.1,4.29c.84.49,3.07,1.72,5.92,3.25a58.85,58.85,0,0,0-6.53,1c-1,.27-2.65,1.34-2.46,2.09s2.14.88,3.17.61a50.26,50.26,0,0,0,7.34-2.9c2.41,1.28,5.13,2.71,7.77,4a29.82,29.82,0,0,0-4.68.51c-.71.19-1.8,1.12-1.61,1.87s1.61,1,2.32.84,4.43-1.65,5.31-2.53c2.46,1.24,4.78,2.38,6.63,3.23-1.85.84-4.17,2-6.63,3.22-.88-.88-4.69-2.36-5.31-2.53s-2.12.09-2.32.84.9,1.68,1.61,1.87a29.82,29.82,0,0,0,4.68.51c-2.64,1.34-5.36,2.77-7.77,4a50.26,50.26,0,0,0-7.34-2.9c-1-.27-3-.14-3.17.61s1.43,1.82,2.46,2.09a58.85,58.85,0,0,0,6.53,1c-2.85,1.53-5.08,2.76-5.92,3.25-3.21,1.87-3.7,3.27-3.1,4.29s2.05,1.28,5.26-.59c.84-.49,3-1.83,5.74-3.56a58.6,58.6,0,0,0-2.33,6.19c-.27,1-.14,3,.61,3.16s1.82-1.43,2.09-2.45a50.23,50.23,0,0,0,1.08-7.82c2.3-1.48,4.88-3.14,7.35-4.78a29.41,29.41,0,0,0-1.86,4.33c-.18.71.09,2.12.84,2.31s1.68-.89,1.87-1.6.74-4.67.41-5.87c2.28-1.52,4.4-3,6-4.17-.2,2-.38,4.59-.55,7.32-1.2.32-4.41,2.86-4.86,3.32s-1,1.87-.45,2.42,1.9.08,2.43-.45a29.08,29.08,0,0,0,2.8-3.78c-.17,3-.31,6-.42,8.76a50,50,0,0,0-6.21,4.87c-.75.75-1.61,2.5-1.07,3s2.3-.32,3.05-1.07a61.75,61.75,0,0,0,4.17-5.12c-.12,3.23-.19,5.77-.19,6.75,0,3.71,1,4.83,2.15,4.83S44,70.06,44,66.35c0-1-.07-3.52-.19-6.75A61.75,61.75,0,0,0,48,64.72c.75.75,2.5,1.62,3,1.07s-.32-2.29-1.07-3a50,50,0,0,0-6.21-4.87c-.11-2.74-.25-5.8-.42-8.76a29.08,29.08,0,0,0,2.8,3.78c.53.53,1.88,1,2.43.45s.07-1.9-.45-2.42-3.66-3-4.86-3.32c-.17-2.73-.35-5.3-.55-7.32,1.64,1.19,3.76,2.65,6,4.17-.33,1.2.25,5.25.41,5.87s1.12,1.8,1.87,1.6,1-1.6.84-2.31A29.41,29.41,0,0,0,50,45.29c2.47,1.64,5.05,3.3,7.35,4.78a50.23,50.23,0,0,0,1.08,7.82c.27,1,1.34,2.65,2.09,2.45s.88-2.14.61-3.16A60.3,60.3,0,0,0,58.85,51c2.72,1.73,4.89,3.07,5.73,3.56,3.21,1.87,4.66,1.61,5.26.59S70,52.72,66.74,50.85Z" style="fill:#fff"/></svg>